<svg width="46" height="12" viewBox="0 0 46 12" fill="none" xmlns="http://www.w3.org/2000/svg">
<mask id="mask0_1346_2204" style="mask-type:luminance" maskUnits="userSpaceOnUse" x="0" y="0" width="46" height="9">
<path d="M45.8194 0H0V8.6443H45.8194V0Z" fill="white"/>
</mask>
<g mask="url(#mask0_1346_2204)">
<path d="M13.8146 5.46442C13.6278 5.60115 13.4013 5.67278 13.1699 5.6683C12.8033 5.6683 12.5141 5.54185 12.3021 5.28891C12.0901 5.036 11.9841 4.70715 11.9841 4.30241C11.9841 3.89767 12.0885 3.56733 12.2975 3.31134C12.5064 3.05537 12.7907 2.92738 13.1502 2.92738C13.3859 2.92454 13.6156 3.0014 13.8022 3.14549C13.9834 3.27716 14.1059 3.4745 14.1435 3.6953H15.4334C15.4046 3.34484 15.2776 3.00958 15.0668 2.72807C14.8514 2.44069 14.5656 2.21362 14.237 2.06873C13.8825 1.91157 13.4985 1.83235 13.1108 1.83642C12.6608 1.82736 12.2164 1.93805 11.8233 2.15716C11.4547 2.36432 11.1535 2.67302 10.9554 3.04651C10.7557 3.43526 10.6514 3.86603 10.6514 4.30312C10.6514 4.74018 10.7557 5.17097 10.9554 5.55972C11.1536 5.93309 11.4548 6.24179 11.8233 6.44906C12.2158 6.66758 12.6593 6.77823 13.1085 6.7698C13.4944 6.77387 13.8764 6.69283 14.2274 6.53245C14.5565 6.38411 14.8445 6.158 15.0668 5.87357C15.2818 5.60146 15.4186 5.27597 15.4627 4.93199H14.1655C14.1176 5.14643 13.9927 5.33583 13.8146 5.46442Z" fill="black"/>
<path d="M19.6194 2.15354C19.2204 1.93863 18.7731 1.82932 18.32 1.83601C17.8684 1.82871 17.4225 1.93808 17.0256 2.15354C16.65 2.35735 16.3392 2.66247 16.1284 3.03418C15.9168 3.42266 15.8059 3.85802 15.8059 4.30039C15.8059 4.74279 15.9168 5.17816 16.1284 5.56663C16.3385 5.93889 16.6491 6.24453 17.0247 6.44865C17.421 6.66356 17.8659 6.77306 18.3168 6.76664C18.7699 6.77303 19.2172 6.66356 19.6162 6.44865C19.994 6.24601 20.307 5.94096 20.5193 5.56845C20.731 5.17998 20.8419 4.74465 20.8419 4.30224C20.8419 3.85984 20.731 3.42451 20.5193 3.03602C20.308 2.6633 19.9962 2.35749 19.6194 2.15354ZM19.2116 5.28621H19.2093C19.0992 5.41023 18.9631 5.50856 18.8108 5.57419C18.6585 5.63983 18.4936 5.67119 18.3278 5.66607C17.9612 5.66607 17.6648 5.53958 17.4384 5.28668C17.2109 5.04016 17.0971 4.71149 17.0971 4.30064C17.0971 3.88979 17.2109 3.55775 17.4384 3.30451C17.5528 3.18417 17.6906 3.08843 17.8432 3.02315C17.9959 2.95787 18.1603 2.92445 18.3263 2.92492C18.4924 2.9254 18.6566 2.95975 18.8089 3.02589C18.9612 3.09201 19.0984 3.18855 19.2121 3.30957C19.4397 3.56553 19.5534 3.8959 19.5534 4.30064C19.5534 4.70538 19.4395 5.03405 19.2116 5.28668V5.28621Z" fill="black"/>
<path d="M24.8025 2.40276C24.6574 2.21855 24.4659 2.07623 24.2476 1.99039C24 1.88694 23.7338 1.83518 23.4655 1.83827C22.9972 1.83827 22.5957 1.93953 22.2609 2.14205C21.9242 2.34623 21.6557 2.64569 21.4893 3.00254C21.311 3.41255 21.219 3.85486 21.219 4.30198C21.219 4.74908 21.311 5.19142 21.4893 5.60141C21.657 5.96042 21.9283 6.26106 22.2682 6.46466C22.6064 6.66657 23.0127 6.76768 23.487 6.76798C23.7571 6.7699 24.0248 6.71754 24.2742 6.61402C24.491 6.53125 24.6789 6.38699 24.8149 6.19891V6.83214C24.8238 7.04114 24.7506 7.24536 24.611 7.40121C24.5453 7.47225 24.4653 7.52847 24.3761 7.56607C24.287 7.6037 24.1908 7.62182 24.0941 7.61929H21.8948V8.62734H24.2843C24.8283 8.62734 25.2645 8.47566 25.5929 8.17234C25.9213 7.86902 26.0847 7.46641 26.0832 6.96455V1.90974H24.8002L24.8025 2.40276ZM24.5592 5.29305C24.3375 5.54262 24.0427 5.66753 23.6749 5.66784C23.3144 5.66784 23.0252 5.5446 22.8071 5.29808C22.589 5.0516 22.4796 4.71953 22.479 4.30198C22.479 3.8844 22.5888 3.55085 22.8084 3.30128C23.0281 3.05172 23.3173 2.92694 23.6763 2.92694C24.0428 2.92694 24.3368 3.05172 24.5583 3.30128C24.7798 3.55085 24.8905 3.8844 24.8905 4.30198C24.8902 4.71314 24.7798 5.04348 24.5592 5.29305Z" fill="black"/>
<path d="M30.5194 2.07837C30.2362 1.91335 29.9129 1.82964 29.5852 1.83644C29.2809 1.83082 28.9797 1.89922 28.7077 2.03576C28.4614 2.15927 28.2581 2.35426 28.1244 2.59521V1.91159H26.8465V6.69194H28.1267V4.07426C28.1267 3.75171 28.2216 3.48762 28.4113 3.28204C28.5051 3.18035 28.6198 3.10014 28.7475 3.047C28.8753 2.99384 29.013 2.96899 29.1513 2.97414C29.2784 2.96992 29.4049 2.99362 29.5219 3.04358C29.6389 3.09354 29.7436 3.16853 29.8285 3.26327C30.0057 3.46543 30.099 3.72769 30.0892 3.99637V6.68963H31.3692V3.72145C31.3757 3.38158 31.2985 3.04532 31.1445 2.74229C31.0018 2.46717 30.7854 2.23725 30.5194 2.07837Z" fill="black"/>
<path d="M33.3688 1.91345H32.0889V6.69332H33.3688V1.91345Z" fill="black"/>
<path d="M37.0803 4.23922L35.361 3.40486C35.3095 3.38285 35.2656 3.34602 35.2351 3.299C35.2073 3.25695 35.1925 3.20747 35.1931 3.15699C35.1928 3.12535 35.1996 3.09407 35.2125 3.06534C35.2255 3.03658 35.2443 3.01094 35.2681 2.9902C35.316 2.94447 35.3796 2.91902 35.4459 2.91917H37.6394V1.91115H35.1894C34.9677 1.90928 34.7498 1.96654 34.558 2.07701C34.3672 2.1855 34.2098 2.34391 34.1024 2.53521C33.9931 2.72906 33.936 2.94808 33.9366 3.17073C33.9341 3.40922 34.0054 3.64268 34.1406 3.83924C34.2823 4.04306 34.4731 4.20789 34.6954 4.31851L36.4027 5.1625C36.4518 5.1863 36.4941 5.22205 36.5259 5.26651C36.5561 5.30788 36.5722 5.35783 36.5715 5.40901C36.5728 5.44631 36.566 5.48345 36.5521 5.51806C36.5379 5.55248 36.5169 5.58366 36.49 5.60968C36.4632 5.63549 36.4311 5.65547 36.3962 5.66834C36.3613 5.68128 36.3243 5.68659 36.2872 5.68393H34.1354V6.69195H36.5441C36.7716 6.69291 36.9945 6.63141 37.1893 6.51416C37.3844 6.40172 37.5477 6.24134 37.6635 6.0482C37.7802 5.85453 37.8416 5.63272 37.8413 5.4067C37.8423 5.16339 37.7697 4.92546 37.6332 4.72402C37.4949 4.51637 37.3041 4.3491 37.0803 4.23922Z" fill="black"/>
<path d="M45.6061 2.68822C45.4681 2.42695 45.2594 2.20986 45.0037 2.06187C44.7333 1.90693 44.4261 1.82779 44.1146 1.83277C43.7701 1.82713 43.4308 1.9157 43.1332 2.0889C42.8436 2.26088 42.6392 2.47012 42.5204 2.71663C42.4166 2.44579 42.2268 2.21664 41.9798 2.06462C41.7325 1.91189 41.4228 1.83552 41.0502 1.83552C40.7643 1.82904 40.4822 1.90116 40.2346 2.044C40.0049 2.17861 39.8153 2.37165 39.6847 2.60346V1.91296H38.4017V6.6933H39.6819V3.97115C39.6819 3.65471 39.7672 3.40026 39.9382 3.20783C40.0219 3.11284 40.1259 3.03763 40.2423 2.98757C40.359 2.9375 40.4849 2.91383 40.6115 2.91824C40.7313 2.9146 40.8502 2.93892 40.9588 2.98926C41.0675 3.03912 41.1629 3.11382 41.2376 3.20737C41.3957 3.3998 41.4747 3.65425 41.4747 3.97072V6.69284H42.755V3.97115C42.755 3.65471 42.8387 3.40026 43.006 3.20783C43.0903 3.11188 43.1949 3.03604 43.3125 2.98592C43.4299 2.93581 43.5571 2.91268 43.6846 2.91824C43.8043 2.91456 43.9235 2.93877 44.0322 2.98894C44.1409 3.03912 44.2366 3.11389 44.3116 3.20737C44.4693 3.3998 44.5484 3.65425 44.5484 3.97072V6.68963H45.8194V3.57024C45.8231 3.26303 45.7496 2.95977 45.6061 2.68822Z" fill="black"/>
<path d="M4.72216 2.88159V0.018786C4.59065 0.00641472 4.45684 0 4.32215 0C3.17585 0 2.07649 0.455369 1.26593 1.26593C0.455369 2.07649 0 3.17585 0 4.32215C0 5.46844 0.455369 6.56781 1.26593 7.37837C2.07649 8.18893 3.17585 8.6443 4.32215 8.6443C4.45684 8.6443 4.59065 8.63741 4.72216 8.62549V5.76272H2.88158V2.88159H4.72216Z" fill="black"/>
<path fill-rule="evenodd" clip-rule="evenodd" d="M4.72213 0.0183105V2.88157H2.88158V5.76268H4.72213V8.62595C5.79421 8.52568 6.79025 8.02891 7.51529 7.23286C8.24033 6.43685 8.6422 5.39885 8.6422 4.32214C8.6422 3.2454 8.24033 2.20742 7.51529 1.41139C6.79025 0.615361 5.79421 0.118586 4.72213 0.0183105Z" fill="#E0E0E0"/>
</g>
</svg>
