<svg width="46" height="12" viewBox="0 0 46 12" fill="none" xmlns="http://www.w3.org/2000/svg">
<g clip-path="url(#clip0_1346_2206)">
<path d="M20.6052 2.50844L20.4659 3.65263C20.2605 3.57929 20.0478 3.54261 19.8571 3.54261C19.395 3.54261 18.999 3.76265 18.6983 4.13671V7.54727H17.4954V2.53778H18.3242L18.6029 3.08053C18.911 2.70647 19.3657 2.42043 19.9818 2.41309C20.1872 2.42043 20.3925 2.44243 20.6052 2.50844ZM38.9196 3.08787L38.6409 2.54511H37.8121V7.55461H39.015V4.14404C39.3157 3.77732 39.7044 3.54995 40.1738 3.54995C40.3718 3.54995 40.5772 3.58662 40.7826 3.65996L40.9219 2.51578C40.7092 2.44977 40.4965 2.42776 40.3058 2.42776C39.6751 2.42776 39.2277 2.71381 38.9196 3.08787ZM14.6863 2.42043C14.1215 2.42043 13.6008 2.6478 13.168 3.02919V-0.183339L11.9651 0.102708V7.55461H13.168V4.21005C13.4614 3.85066 13.8941 3.55728 14.3635 3.55728C15.1043 3.55728 15.5297 4.01202 15.5297 5.11221V7.54727H16.7253V5.0682C16.7253 3.55728 16.0652 2.42043 14.6863 2.42043ZM9.39806 6.52777C8.63526 6.52777 7.98982 5.91167 7.98982 5.03886C7.98982 4.17338 8.60592 3.57195 9.36872 3.57195C9.80879 3.57195 10.2489 3.81399 10.5569 4.21739L11.4517 3.4546C10.9823 2.84583 10.3002 2.42043 9.39072 2.42043C7.87247 2.42043 6.75762 3.59395 6.75762 5.05353C6.75762 6.60112 7.93848 7.68663 9.39072 7.68663C10.2415 7.68663 11.0117 7.29057 11.5031 6.71114L10.6376 5.94101C10.2782 6.33707 9.92614 6.52777 9.39806 6.52777ZM4.25654 3.23456C4.13919 3.20522 3.81647 3.12454 3.61843 3.0732C2.89231 2.90451 2.43757 2.68447 2.43757 2.18572C2.43757 1.72364 2.89965 1.29824 3.59643 1.29824C4.21987 1.29824 4.69661 1.60629 5.10001 2.16372L6.0095 1.32758C5.56209 0.740815 4.86531 0.102708 3.61843 0.102708C2.26154 0.102708 1.12469 1.0342 1.12469 2.28107C1.12469 3.2639 1.74812 3.95335 3.06834 4.26873C3.25904 4.31274 3.54509 4.38608 3.74312 4.43743C4.55726 4.65013 4.87998 5.01686 4.87998 5.47893C4.87998 6.05836 4.31522 6.46176 3.69911 6.46176C3.14902 6.46176 2.48891 6.26373 2.06351 5.39825L1 6.04369C1.35206 6.8725 2.32755 7.68663 3.64777 7.68663C5.16602 7.68663 6.2222 6.65979 6.2222 5.47893C6.2222 4.33474 5.53275 3.56462 4.25654 3.23456ZM43.401 4.53278C42.7189 4.37875 42.3008 4.21006 42.3008 3.89467C42.3008 3.60129 42.6162 3.42526 43.0563 3.42526C43.4524 3.42526 43.9218 3.67463 44.1271 4.02669L44.8899 3.34458C44.5965 2.88984 43.9584 2.42043 43.0563 2.42043C42.1175 2.42043 41.1713 3.01453 41.1713 3.94601C41.1713 4.81882 41.8534 5.24423 43.071 5.53027C43.5257 5.64029 43.8851 5.80899 43.8851 6.13171C43.8851 6.41775 43.6284 6.65246 43.137 6.65246C42.5795 6.65246 42.1101 6.43976 41.7434 5.94101L40.9733 6.63046C41.406 7.28323 42.2495 7.68663 43.1663 7.68663C44.2225 7.68663 44.9999 6.98251 44.9999 6.10237C45.0073 5.19289 44.2592 4.73081 43.401 4.53278ZM20.5759 5.05353C20.5759 6.43976 21.6174 7.56194 23.033 7.6793V6.54978C22.2922 6.43242 21.8008 5.79432 21.8008 5.05353C21.8008 4.2614 22.3215 3.65997 23.033 3.54261V2.41309C21.6174 2.53778 20.5759 3.6673 20.5759 5.05353ZM23.5317 2.42043V3.54995C24.2432 3.6673 24.7639 4.26873 24.7639 5.06086C24.7639 5.80165 24.2652 6.43976 23.5317 6.55711V7.68663C24.9473 7.56928 25.9888 6.44709 25.9888 5.06086C25.9888 3.6673 24.9473 2.53778 23.5317 2.42043ZM31.5851 6.2784L31.8711 7.55461H30.7783L30.5216 7.07786C30.1402 7.41525 29.6121 7.6793 28.9666 7.6793C27.5584 7.6793 26.5022 6.52044 26.5022 5.04619C26.5022 3.52061 27.6684 2.41309 29.0546 2.41309C29.5607 2.41309 30.0155 2.59646 30.3822 2.87517V0.0953753L31.5851 -0.190674V6.2784ZM30.3895 3.96802C30.0815 3.69664 29.6781 3.52061 29.1793 3.52061C28.3799 3.52061 27.7198 4.18072 27.7198 5.03152C27.7198 6.00702 28.4092 6.58645 29.1573 6.58645C29.6267 6.58645 30.0741 6.37375 30.3895 6.05836V3.96802V3.96802ZM37.196 5.04619C37.196 5.18555 37.1887 5.38358 37.1887 5.38358H33.4334C33.5361 6.10237 34.1155 6.60845 34.8489 6.60845C35.3844 6.60845 35.8391 6.38842 36.1765 5.98502L36.9833 6.69647C36.4919 7.2759 35.7658 7.67196 34.8709 7.67196C33.4187 7.67196 32.2378 6.56444 32.2378 5.01685C32.2378 3.56461 33.3454 2.41309 34.7976 2.41309C36.1912 2.42043 37.196 3.58662 37.196 5.04619ZM35.9491 4.48877C35.8684 3.99735 35.4137 3.48393 34.7242 3.48393C34.1081 3.48393 33.6167 3.92401 33.4627 4.48877H35.9491Z" fill="black"/>
</g>
<defs>
<clipPath id="clip0_1346_2206">
<rect width="46" height="12" fill="white"/>
</clipPath>
</defs>
</svg>
