<svg width="46" height="12" viewBox="0 0 46 12" fill="none" xmlns="http://www.w3.org/2000/svg">
<path d="M12.0096 7.01523H10.566C10.7529 6.84528 10.8041 6.23392 10.8719 5.1299L10.8884 4.8753L10.9562 3.43171C10.9562 3.14306 10.9221 2.95625 10.8372 2.88813H12.4507C12.8409 2.88813 13.6057 2.90467 13.6057 3.7035C13.6057 4.24708 13.1097 4.56979 12.6544 4.68882C13.2998 4.73974 13.7786 5.06245 13.7786 5.72473C13.7951 6.43793 13.1163 7.01556 12.0123 7.01556L12.0096 7.01523ZM11.9614 5.01186H11.6727L11.6218 5.62355L11.5877 6.388C11.5877 6.42206 11.7068 6.50703 11.9779 6.50703C12.5555 6.50703 12.9292 6.21838 12.9292 5.74258C12.9457 5.2162 12.4874 5.01517 11.961 5.01517L11.9614 5.01186ZM12.0801 3.38509C11.9951 3.38509 11.8932 3.38509 11.7914 3.40162C11.7405 3.69028 11.7236 3.96207 11.7064 4.28444L11.6899 4.52251H11.7917C12.3181 4.52251 12.7936 4.33569 12.7936 3.86023C12.8101 3.58844 12.5727 3.38476 12.0804 3.38476L12.0801 3.38509ZM17.1723 7.05326C16.8152 7.05326 16.7821 7.03673 16.51 6.06794L16.4082 5.71084C16.2382 5.79582 15.9327 5.82987 15.4569 5.82987H14.961L14.876 6.01669C14.791 6.2035 14.5873 6.59432 14.5873 6.83206C14.5859 6.89476 14.5916 6.95743 14.6042 7.01887H13.6189C13.8907 6.74708 14.2643 6.0848 14.757 5.03501L15.0456 4.42331L15.5892 3.14934C15.5892 3.06437 15.5727 2.99658 15.5383 2.91128H16.4383L16.88 4.54135L17.05 5.18677C17.3558 6.29112 17.5592 6.81685 17.7972 7.02118L17.169 7.05524L17.1723 7.05326ZM15.8782 3.86221L15.1987 5.3058H16.2859L15.8782 3.86221ZM21.0759 7.19114C20.77 7.19114 20.7023 7.14022 20.6004 7.00432L19.4286 5.40731C19.3436 5.27505 19.2587 5.18644 19.1228 5.18644H19.1062L19.0897 5.50915L19.0388 6.52819C19.0388 6.79998 19.0729 6.96993 19.1578 7.03739H18.0336C18.2036 6.90513 18.2545 6.42569 18.3563 5.15205L18.3729 4.89746L18.4407 3.45386C18.4407 3.16521 18.4066 2.9784 18.3216 2.91029H19.8333C20.3425 2.91029 21.0051 2.99526 21.0051 3.79311C21.0051 4.45539 20.5634 4.81215 20.0198 4.9821C20.0919 5.05776 20.1599 5.13723 20.2235 5.22017L21.0557 6.32452C21.5821 7.02085 21.6162 7.05194 21.803 7.13989C21.5619 7.1731 21.3189 7.19011 21.0756 7.19081L21.0759 7.19114ZM19.5811 3.40328C19.4792 3.40328 19.3602 3.40328 19.2583 3.41981C19.2243 3.58976 19.2074 3.89527 19.1734 4.38793L19.1568 4.67659C19.2078 4.69312 19.2891 4.69312 19.3436 4.69312C19.8528 4.69312 20.2099 4.37041 20.2099 3.91181C20.1934 3.5891 19.9719 3.40262 19.5817 3.40262L19.5811 3.40328ZM23.2704 7.10021C22.2004 7.10021 21.5891 6.21739 21.5891 5.2486C21.5891 3.89296 22.3363 2.81969 23.7462 2.81969C24.1879 2.81969 24.3916 2.90467 24.7652 2.90467L24.6634 3.95777C24.4597 3.58414 24.1198 3.34608 23.6781 3.34608C22.7952 3.34608 22.4381 4.29734 22.4381 5.11238C22.4381 5.9952 22.9473 6.48786 23.5931 6.48786C23.9502 6.48786 24.2726 6.40288 24.7989 6.02925C24.5781 6.67467 24.0857 7.09922 23.2704 7.09922V7.10021ZM30.5396 7.0483C30.1825 7.0483 30.166 7.03177 29.8773 6.06298L29.7755 5.70588C29.6055 5.79086 29.3 5.82491 28.8242 5.82491H28.315L28.23 6.01173C28.0978 6.28352 27.9414 6.60623 27.9414 6.8271C27.9414 6.87802 27.9579 6.94613 27.9579 7.01391H25.0367C25.2066 6.8271 25.2575 6.21574 25.3425 5.12858L25.3591 4.87398L25.4268 3.43039C25.4268 3.1586 25.3928 2.97179 25.325 2.88681H26.4631C26.2931 3.00584 26.2422 3.66812 26.1744 4.77214L26.1579 5.02674L26.0729 6.24946C26.0729 6.43628 26.1407 6.48752 26.3447 6.48752C27.041 6.48752 27.1938 6.47099 27.5165 6.26665C27.7202 5.90956 27.9242 5.46848 28.1447 5.01021L28.4334 4.39852L28.977 3.12454C28.977 3.03957 28.9604 2.97179 28.926 2.88648H29.8228L30.2645 4.51656L30.4344 5.16197C30.7403 6.26632 30.9304 6.79205 31.1989 6.99639C30.9792 7.02532 30.7581 7.04232 30.5366 7.04731L30.5396 7.0483ZM29.2458 3.85427L28.5835 5.29787H29.6535L29.2458 3.85427ZM33.1183 4.78834L32.8296 5.33192C32.7618 5.63777 32.7447 6.04512 32.7447 6.48686C32.7447 6.67368 32.7787 6.9286 32.8637 7.01325H31.7395C31.9432 6.82643 32.0113 5.68836 32.0113 5.31473C31.8585 4.80554 31.6542 4.29569 31.349 3.68465C31.1453 3.31103 30.9245 2.95724 30.7714 2.88648L31.4988 2.85242C31.7706 2.85242 31.8559 2.88648 32.0252 3.26011L32.6028 4.65278L33.3302 3.48098C33.3811 3.37914 33.4493 3.24291 33.4493 3.12388C33.4493 3.03891 33.4327 2.92021 33.3983 2.88582H34.5027C34.2646 2.93674 33.3137 4.44844 33.11 4.78801L33.1183 4.78834ZM36.8463 3.85394C36.6763 3.5481 36.3027 3.31037 35.895 3.31037C35.5379 3.31037 35.2328 3.44262 35.2328 3.81956C35.2328 4.14227 35.6229 4.34594 36.0309 4.61773C36.4727 4.88952 36.9309 5.22942 36.9309 5.82359C36.9309 6.58804 36.1837 7.08004 35.3009 7.08004C34.9438 7.08004 34.5734 7.01226 34.1459 6.85917L34.2137 5.84012C34.4174 6.24781 34.7913 6.56754 35.3518 6.56754C35.7763 6.56754 36.1162 6.36386 36.1162 5.98991C36.1162 5.68406 35.8616 5.48071 35.5386 5.29357C34.8591 4.88588 34.4342 4.56615 34.4342 3.96868C34.4342 3.08586 35.1617 2.79688 35.946 2.79688C36.3877 2.79688 36.6734 2.88185 36.9478 2.88185L36.8463 3.85394Z" fill="black"/>
<path d="M8.93191 2.14092C8.84131 1.92931 8.69054 1.68794 8.41875 1.50708C8.29806 1.41648 8.14696 1.32588 7.99619 1.26571C7.8755 1.23264 7.75482 1.2052 7.60371 1.2052H7.57065C7.38945 1.2052 7.05749 1.23826 6.87629 1.50708C6.7857 1.59767 6.75561 1.77887 6.7857 1.92964C6.81876 2.05032 6.90638 2.17101 7.02707 2.20143C7.05247 2.22239 7.08477 2.23312 7.11766 2.23152C7.11766 2.26458 7.0846 2.32211 7.0846 2.32211C6.994 2.41271 6.84323 2.56348 6.39025 2.56348H6.35718C6.11581 2.53042 5.93462 2.47289 5.66283 2.2011C5.51173 2.0199 5.42146 1.68794 5.42146 1.17478C5.42146 0.902989 5.3884 0.692038 5.33086 0.51349C5.2978 0.392805 5.17976 0.27212 5.08949 0.211612C4.99923 0.151104 4.93839 0.121016 4.78762 0.0605077L4.27446 0C4.09326 0 3.97258 0.0330643 3.91207 0.120685H3.73088C3.64028 0.120685 3.51926 0.15375 3.429 0.15375C3.24781 0.186814 3.12712 0.274435 3.00644 0.365362C2.97337 0.398426 2.85533 0.516466 2.82524 0.637151C2.82524 0.727747 2.85831 0.818344 2.85831 0.848764L2.89137 0.881827C2.95188 0.82132 3.07256 0.791232 3.22334 0.791232C3.43495 0.791232 3.7365 0.881828 3.79701 1.0326C3.94811 1.27397 3.8876 1.45516 3.8876 1.66645C3.79701 2.24011 3.58572 2.5119 3.13274 2.57241C3.04215 2.60548 2.95155 2.60548 2.89137 2.60548C2.55941 2.60548 2.3177 2.51488 2.19702 2.3036V2.24309C2.19702 2.24309 2.23008 2.24309 2.25753 2.21002C2.37821 2.14952 2.46914 2.05892 2.4989 1.93824C2.53196 1.78713 2.4989 1.63636 2.4083 1.51567C2.22711 1.33448 1.98574 1.21379 1.71395 1.21379C1.53276 1.21379 1.41207 1.24686 1.29138 1.2743C0.928999 1.3649 0.597032 1.66678 0.355662 2.14985C0.174469 2.51223 0.0537841 2.9348 0.0236955 3.41787C-0.0063931 3.90094 -0.0093689 4.29341 0.0236955 4.65547C0.0567599 5.25922 0.1748 5.62161 0.325574 6.01111C0.476347 6.40061 0.656218 6.76597 0.86783 7.09893C0.928338 7.18953 0.958426 7.28012 1.01893 7.3403L1.052 7.30724C1.08506 7.27417 1.11251 7.24673 1.1426 7.18655C1.26328 7.09595 1.47456 6.79408 1.53507 6.70381C1.59558 6.61354 1.68617 6.46244 1.74668 6.31134L1.77975 6.25083L1.84025 6.28389C1.90076 6.3444 1.93085 6.435 1.93085 6.52526C1.93085 6.61553 1.89779 6.70645 1.84025 6.88765C1.77975 7.09926 1.65906 7.34063 1.53838 7.582C1.57144 7.61506 1.57144 7.6726 1.53838 7.6726C1.44778 7.8237 1.44778 7.88421 1.44778 7.94439H1.48084C1.51391 7.94439 1.63195 7.91132 1.72221 7.8237C1.81281 7.76319 2.05418 7.55191 2.35606 7.12935C2.59743 6.82747 2.74853 6.4955 2.92973 6.13312L2.96279 6.07261L3.0233 6.10567C3.05636 6.13874 3.08381 6.13874 3.1139 6.16618C3.14696 6.22669 3.14696 6.31729 3.14696 6.40755C3.1139 6.64892 2.96577 6.98122 2.87517 7.22259C2.69398 7.64515 2.36201 8.09814 2.12031 8.4301C2.11359 8.45137 2.10185 8.4707 2.08608 8.48647C2.07031 8.50224 2.05098 8.51398 2.02971 8.5207C2.06278 8.55376 2.09022 8.58121 2.1504 8.6113L2.24099 8.70189C2.55873 8.96747 2.9026 9.20011 3.26731 9.39624C3.56919 9.57744 4.17328 9.87898 4.59551 10C5.01807 9.9094 5.62183 9.57744 5.92371 9.39624C6.28843 9.20011 6.63229 8.96747 6.95003 8.70189L7.04062 8.6113C7.10113 8.57823 7.13122 8.5207 7.16131 8.5207C7.19437 8.46019 7.19437 8.4301 7.19437 8.40001L7.16131 8.36695C6.91994 8.06507 6.58764 7.582 6.40645 7.15944C6.31585 6.91807 6.16508 6.58577 6.13466 6.3444C6.1016 6.2538 6.13466 6.16321 6.16772 6.10303L6.22823 6.04252C6.2613 6.00946 6.31883 6.00946 6.31883 6.00946L6.35189 6.06996C6.53309 6.43235 6.71428 6.76432 6.92556 7.0662C7.22744 7.48876 7.46881 7.70004 7.55941 7.76055C7.65 7.85114 7.7406 7.88123 7.80078 7.88123H7.83384C7.8669 7.84817 7.83384 7.79064 7.74324 7.63986C7.71018 7.6068 7.71018 7.57935 7.71018 7.54927C7.58949 7.3079 7.46881 7.06653 7.4083 6.85491C7.34779 6.67372 7.3177 6.55304 7.3177 6.49253C7.3177 6.40193 7.35077 6.31134 7.4083 6.25116L7.46881 6.21809L7.50187 6.2786C7.56238 6.42971 7.68307 6.61057 7.74324 6.70116C7.80342 6.79176 8.04512 7.06355 8.10563 7.15415C8.16614 7.21465 8.19623 7.24474 8.19623 7.27483L8.22929 7.3079C8.26235 7.27483 8.2898 7.2173 8.34998 7.09628L8.38304 7.06322C8.56423 6.76134 8.74543 6.36887 8.8962 5.97639C9.0473 5.61401 9.13757 5.22153 9.19808 4.62075C9.23114 4.25837 9.25859 3.86589 9.19808 3.38315C9.23114 2.93017 9.10748 2.47719 8.95671 2.14555L8.93191 2.14092Z" fill="url(#paint0_radial_1346_2203)"/>
<defs>
<radialGradient id="paint0_radial_1346_2203" cx="0" cy="0" r="1" gradientUnits="userSpaceOnUse" gradientTransform="translate(0.269498 1.74066) scale(10.1968 10.1968)">
<stop/>
<stop offset="0.305"/>
<stop offset="0.5"/>
<stop offset="0.8"/>
<stop offset="1"/>
</radialGradient>
</defs>
</svg>
