<svg xmlns="http://www.w3.org/2000/svg" width="1200" height="600" viewBox="0 0 1200 600">
  <rect width="1200" height="600" fill="#1a1a2e"/>
  <text x="300" y="60" font-family="system-ui, sans-serif" font-size="28" fill="#888888" text-anchor="middle">BEFORE</text>
  <text x="900" y="60" font-family="system-ui, sans-serif" font-size="28" fill="#c9a227" text-anchor="middle">AFTER</text>
  <!-- Legacy portal representation -->
  <rect x="100" y="100" width="400" height="350" rx="8" fill="#333" stroke="#555" stroke-width="2"/>
  <rect x="120" y="120" width="360" height="30" rx="4" fill="#444"/>
  <rect x="120" y="170" width="160" height="100" rx="4" fill="#444"/>
  <rect x="300" y="170" width="180" height="100" rx="4" fill="#444"/>
  <rect x="120" y="290" width="360" height="40" rx="4" fill="#444"/>
  <rect x="120" y="350" width="360" height="80" rx="4" fill="#444"/>
  <!-- New app representation -->
  <rect x="700" y="100" width="400" height="350" rx="24" fill="#222" stroke="#c9a227" stroke-width="2"/>
  <rect x="720" y="120" width="360" height="40" rx="8" fill="#333"/>
  <text x="900" y="175" font-family="system-ui, sans-serif" font-size="24" fill="#ffffff" text-anchor="middle">£8.4M</text>
  <text x="900" y="205" font-family="system-ui, sans-serif" font-size="12" fill="#c9a227" text-anchor="middle">Total Portfolio</text>
  <rect x="720" y="230" width="360" height="80" rx="8" fill="#333"/>
  <rect x="740" y="250" width="100" height="40" rx="4" fill="#c9a227" opacity="0.2"/>
  <text x="790" y="275" font-family="system-ui, sans-serif" font-size="14" fill="#ffffff" text-anchor="middle">Equities</text>
  <rect x="860" y="250" width="100" height="40" rx="4" fill="#c9a227" opacity="0.2"/>
  <text x="910" y="275" font-family="system-ui, sans-serif" font-size="14" fill="#ffffff" text-anchor="middle">Bonds</text>
  <rect x="720" y="330" width="170" height="100" rx="8" fill="#333"/>
  <text x="805" y="380" font-family="system-ui, sans-serif" font-size="18" fill="#ffffff" text-anchor="middle">£127K</text>
  <text x="805" y="405" font-family="system-ui, sans-serif" font-size="11" fill="#888888" text-anchor="middle">YTD Return</text>
  <rect x="910" y="330" width="170" height="100" rx="8" fill="#333"/>
  <text x="995" y="380" font-family="system-ui, sans-serif" font-size="18" fill="#c9a227" text-anchor="middle">+12.4%</text>
  <text x="995" y="405" font-family="system-ui, sans-serif" font-size="11" fill="#888888" text-anchor="middle">Performance</text>
</svg>