<svg width="46" height="12" viewBox="0 0 46 12" fill="none" xmlns="http://www.w3.org/2000/svg">
<path d="M5.85438 8.60331V2H7.31132V8.60331H5.85438ZM34.1757 6.13624C34.1757 4.54044 32.9764 3.54994 31.5728 3.54994C30.1603 3.54994 28.9699 4.54961 28.9699 6.13624C28.9699 7.73204 30.1692 8.73171 31.5728 8.73171C32.9764 8.73171 34.1757 7.72287 34.1757 6.13624ZM32.7366 6.13624C32.7366 6.97082 32.1947 7.43856 31.5639 7.43856C30.9332 7.43856 30.3913 6.97082 30.3913 6.13624C30.3913 5.29248 30.9332 4.84309 31.5639 4.84309C32.1947 4.84309 32.7366 5.29248 32.7366 6.13624ZM5.26806 6.70486C5.26806 5.96199 4.89494 5.39337 4.22866 5.13657C4.85941 4.77889 5.0815 4.31116 5.0815 3.76088C5.0815 2.7979 4.40633 2 2.8961 2.00917H0V8.61248H3.02047C4.53959 8.60331 5.26806 7.82375 5.26806 6.70486ZM3.53573 3.95348C3.53573 4.40287 3.26033 4.65967 2.72731 4.65967H1.51912V3.28398H2.72731C3.21591 3.28398 3.53573 3.50409 3.53573 3.95348ZM3.66898 6.60397C3.66898 7.03502 3.37582 7.31933 2.83391 7.31933H1.51912V5.88862H2.83391C3.35805 5.88862 3.66898 6.16375 3.66898 6.60397ZM17.954 4.89812C17.5543 4.03602 16.808 3.55911 15.6798 3.55911C14.3472 3.55911 13.1568 4.42121 13.1568 6.13624C13.1568 7.80541 14.2051 8.73171 15.662 8.73171C16.6837 8.73171 17.5454 8.30983 17.954 7.40187L16.7814 6.77823C16.5682 7.18176 16.2395 7.43856 15.7153 7.43856C15.0402 7.43856 14.6049 6.94331 14.6049 6.13624C14.6049 5.32917 15.1024 4.84309 15.7065 4.84309C16.1773 4.84309 16.5326 5.0632 16.7547 5.54011L17.954 4.89812ZM39.426 4.89812C39.0263 4.03602 38.28 3.55911 37.1518 3.55911C35.8192 3.55911 34.6288 4.42121 34.6288 6.13624C34.6288 7.80541 35.6771 8.73171 37.134 8.73171C38.1557 8.73171 39.0174 8.30983 39.426 7.40187L38.2534 6.77823C38.0402 7.18176 37.7115 7.43856 37.1873 7.43856C36.5122 7.43856 36.0769 6.94331 36.0769 6.13624C36.0769 5.32917 36.5744 4.84309 37.1784 4.84309C37.6493 4.84309 38.0046 5.0632 38.2267 5.54011L39.426 4.89812ZM27.2109 8.60331L25.9938 6.38386H25.061V8.60331H23.5597V2H26.2692C27.735 2 28.7567 2.72453 28.7567 4.14608C28.7567 5.05403 28.3214 5.69602 27.5485 6.09038L28.9521 8.60331H27.2109ZM25.0699 5.07237H26.1893C26.8822 5.07237 27.2198 4.66884 27.2198 4.19193C27.2198 3.62331 26.9 3.31149 26.1893 3.31149H25.0699V5.07237ZM12.917 8.52077V7.48442C12.8548 7.50276 12.7659 7.5211 12.6682 7.5211C12.4817 7.5211 12.3839 7.42022 12.3839 7.24596V5.53094C12.3839 4.24696 11.5489 3.56829 10.1719 3.56829C9.27462 3.56829 8.51062 3.90762 8.0309 4.34784L8.83932 5.28331C9.15913 4.98983 9.58555 4.80641 10.0031 4.80641C10.6427 4.80641 10.9448 5.13657 10.9448 5.67768V5.83359C10.6427 5.76022 10.2607 5.68685 9.79876 5.68685C8.63499 5.68685 7.87988 6.26464 7.87988 7.21845C7.87988 8.19977 8.51062 8.71336 9.48783 8.71336C10.1541 8.71336 10.7493 8.42906 11.0603 8.06221C11.2468 8.54828 11.6555 8.67668 12.0552 8.67668C12.3306 8.68585 12.6504 8.63999 12.917 8.52077ZM10.9536 6.97082C10.9536 7.42022 10.5361 7.7137 10.0564 7.7137C9.60332 7.7137 9.38123 7.47524 9.38123 7.14508C9.38123 6.79657 9.62997 6.53978 10.1363 6.53978C10.4473 6.53978 10.7227 6.5948 10.9536 6.64983V6.97082ZM44.6319 8.60331L42.9173 5.53094L44.5253 3.7242H42.9085L41.2117 5.66851V2.00917H39.7636V8.61248H41.2117V7.42022L41.9046 6.659L42.9884 8.61248H44.6319V8.60331ZM23.1777 8.60331L21.4631 5.53094L23.0711 3.7242H21.4365L19.7574 5.66851V2.00917H18.3094V8.61248H19.7574V7.42022L20.4504 6.659L21.5342 8.61248H23.1777V8.60331ZM45.5203 7.68618C45.8223 7.68618 46 7.87878 46 8.17226C46 8.46574 45.8223 8.65834 45.5203 8.65834C45.2182 8.65834 45.0406 8.46574 45.0406 8.17226C45.0406 7.87878 45.2182 7.68618 45.5203 7.68618ZM45.5203 8.59414C45.7601 8.59414 45.92 8.4474 45.92 8.17226C45.92 7.89712 45.7513 7.75038 45.5203 7.75038C45.2804 7.75038 45.1205 7.89712 45.1205 8.17226C45.1116 8.45657 45.2804 8.59414 45.5203 8.59414ZM45.3337 7.92464H45.5292C45.6446 7.92464 45.7068 7.98883 45.7068 8.08055C45.7068 8.16309 45.6713 8.20895 45.6091 8.23646L45.698 8.41071H45.6091L45.5292 8.2548H45.4226V8.41071H45.3337V7.92464ZM45.4226 7.99801V8.17226H45.5203C45.5825 8.17226 45.618 8.15392 45.618 8.08972C45.618 8.03469 45.5913 8.00718 45.5292 8.00718H45.4226V7.99801Z" fill="black"/>
</svg>
