<svg width="46" height="12" viewBox="0 0 46 12" fill="none" xmlns="http://www.w3.org/2000/svg">
<path d="M9.63727 1.76376C9.63727 2.38562 9.17372 2.8793 8.7992 2.8793C8.74966 2.8793 8.70046 2.85922 8.67971 2.81972C8.6603 2.76048 8.69007 2.74073 8.69007 2.642C8.69007 2.38562 8.49227 2.2079 8.25564 2.2079C7.97885 2.2079 7.75226 2.41508 7.75226 2.73103C7.75226 3.08647 8.08796 3.35289 8.50264 3.35289C9.20282 3.35289 9.9927 2.61255 9.9927 1.76376C9.9927 1.12182 9.50874 0.362061 8.44374 0.362061C7.08086 0.362061 4.96827 1.18106 2.65854 3.79736C1.02021 5.64287 0.339111 7.30095 0.339111 8.50551C0.339111 9.70003 0.93152 10.4504 1.96807 10.4504C3.14251 10.4504 4.68211 9.77902 6.13368 8.3974C6.09318 8.5353 6.08448 8.69294 6.08448 8.78197C6.08448 9.47278 6.57715 9.95674 7.25892 9.95674C8.1964 9.95674 9.52882 8.93961 10.6544 7.4693C11.365 7.25175 11.9373 7.00508 12.6191 6.5114L12.6388 6.52109L12.0169 7.27148C11.3355 8.14035 11.0882 8.66381 11.0882 9.19631C11.0882 9.61099 11.3847 9.93665 11.7699 9.93665C12.1645 9.93665 13.024 9.62103 14.0405 8.55503C13.7831 9.29504 13.9609 9.93665 14.7504 9.93665C15.2541 9.93665 15.9851 9.60095 17.2184 8.466C16.942 9.20635 17.0708 9.93665 17.9092 9.93665C18.413 9.93665 19.1734 9.58154 20.5162 8.40676C20.2484 9.11732 20.3385 9.92728 21.1772 9.92728C22.0257 9.92728 23.1911 9.19631 24.4739 8.02186C25.3622 7.21224 26.3292 6.19577 27.2081 5.07053C27.2081 5.07053 27.1592 5.3664 27.1488 5.71214C27.1291 6.53114 27.0109 7.18312 26.794 7.86389C26.5571 8.58449 26.1618 9.59125 25.3036 9.59125C25.0958 9.59125 24.9084 9.48314 24.9084 9.29504C24.9084 9.26559 24.9187 9.19631 24.968 9.15715C25.0168 9.11732 25.0566 9.15715 25.1453 9.15715C25.3622 9.15715 25.5798 8.97942 25.5798 8.67318C25.5798 8.5055 25.461 8.1698 25.0566 8.1698C24.6717 8.1698 24.2962 8.44626 24.2962 8.97942C24.2962 9.49218 24.7601 9.94636 25.3716 9.94636C26.0925 9.94636 26.8928 9.41352 27.2773 8.82145C27.5046 8.466 27.8008 7.99241 27.8008 7.00506C27.8008 6.78785 27.781 6.53114 27.7516 6.25501L27.6328 5.3664C27.6127 5.20842 27.5146 4.65584 28.018 4.11263L27.7412 3.88538C26.4282 5.51433 25.2337 6.81763 24.2467 7.74574C22.8647 9.039 21.7201 9.60095 21.2067 9.60095C21.0289 9.60095 20.9108 9.532 20.9108 9.35428C20.9108 9.12736 21.0781 8.76221 21.4834 8.23875L24.651 4.202H26.1913L26.4982 3.86596H24.9188C25.5399 3.08646 26.0038 2.49439 26.0038 2.49439H24.9084C24.9084 2.49439 24.4244 3.10621 23.8223 3.86596H21.6705C22.2924 3.08646 22.7566 2.49439 22.7566 2.49439H21.6612C21.6612 2.49439 21.1772 3.10621 20.5751 3.86596H19.153L18.8377 4.202H20.298L17.9584 7.14296C17.9584 7.14296 17.3078 7.98237 16.3399 8.76221C15.3729 9.532 14.9884 9.60095 14.7996 9.60095C14.6225 9.60095 14.5044 9.532 14.5044 9.35428C14.5044 9.12736 14.6721 8.76221 15.0764 8.23875L17.771 4.83323H16.6461C16.6461 4.83323 15.955 5.71214 14.9087 7.01477C14.9087 7.01477 14.9087 7.02516 14.8987 7.02516C14.8204 7.1336 14.2477 7.8639 13.5167 8.5845C12.757 9.32518 12.1056 9.60096 11.8489 9.60096C11.5825 9.60096 11.4838 9.20636 12.1843 8.31808L14.9392 4.83324H13.912C13.0927 5.84067 12.3225 6.43241 11.3553 6.88693C11.0788 7.01478 11.049 6.93613 11.049 6.90634C11.049 6.88693 11.049 6.86651 11.0788 6.80794C11.286 6.4033 11.4637 5.95916 11.4637 5.53409C11.4637 5.03071 11.0587 4.73484 10.566 4.73484C9.33103 4.73484 7.78173 5.92903 6.84425 7.06432C5.88669 8.22939 3.78413 10.0454 2.04707 10.0454C1.32614 10.0454 1.00015 9.62105 1.00015 8.96973C1.00015 7.61757 2.33323 5.7416 3.71485 4.15247C5.29428 2.32605 7.04071 0.776412 8.49228 0.776412C9.23296 0.776412 9.63727 1.25034 9.63727 1.76376ZM10.1905 7.41976C10.0031 7.65706 9.77583 7.9131 9.50875 8.17985C8.41329 9.28568 7.68299 9.58155 7.26864 9.58155C6.95202 9.58155 6.80442 9.37404 6.80442 9.16687C6.80442 8.50551 7.51564 7.48904 8.67971 6.34405C9.76613 5.27772 10.3786 5.09999 10.644 5.09999C10.9208 5.09999 11.0882 5.27772 11.0882 5.53409C11.0882 5.7319 11.0196 6.01806 10.8713 6.34405C10.5356 6.39292 10.0031 6.71891 10.0031 7.09377C10.0031 7.24204 10.0724 7.35048 10.1905 7.41976V7.41976ZM17.9584 9.60096C17.7807 9.60096 17.6632 9.53202 17.6632 9.3543C17.6632 9.12737 17.8309 8.76222 18.2352 8.23876L21.4045 4.20201H23.5465C22.4407 5.59367 21.6307 6.62085 21.1668 7.1925C21.0186 7.37023 20.4071 8.06137 19.5482 8.75285C18.5803 9.52198 18.1465 9.60096 17.9584 9.60096" fill="black"/>
<path d="M39.6873 7.94121L40.0792 8.33213L40.4672 7.94389L39.6873 7.94121ZM40.2165 8.47505L40.6077 8.86564V8.08412L40.2165 8.47505ZM39.5454 8.08412V8.86564L39.9357 8.47505L39.5454 8.08412ZM41.7879 7.82808L41.8043 7.78323C41.8043 7.78323 41.8558 7.64333 41.8552 7.44954C41.8552 7.28287 41.8083 7.14296 41.7383 7.04523C41.6677 6.94817 41.5717 6.88291 41.4569 6.84977C41.3913 6.83205 41.3203 6.82266 41.2484 6.82266L41.247 6.82239C41.0951 6.82239 40.8906 6.87862 40.6827 6.94088C40.5743 6.97836 40.3484 7.03961 40.0752 7.03994H40.0739C39.8005 7.03968 39.5749 6.97836 39.4664 6.94088C39.2583 6.87862 39.0531 6.82239 38.9028 6.82239L38.9007 6.82266C38.8277 6.82266 38.7578 6.83203 38.6918 6.84977C38.5774 6.88291 38.4806 6.94817 38.4107 7.04523C38.3404 7.14296 38.2945 7.28287 38.2945 7.44954C38.2932 7.64333 38.3441 7.78323 38.3441 7.78323L38.3605 7.82808C38.7323 7.54326 39.1842 7.41373 39.6969 7.35884C39.8961 7.33943 40.1652 7.3314 40.451 7.35884C40.9654 7.41373 41.4162 7.54326 41.7878 7.82808H41.7879ZM40.5357 5.32289V5.92769L40.2328 5.62512L40.5357 5.32289ZM40.3827 6.07428H39.7839L40.0842 5.77507L40.3827 6.07428ZM39.6317 5.92769V5.32289L39.9342 5.62512L39.6317 5.92769ZM40.0842 5.47619L39.7839 5.1763H40.3827L40.0842 5.47619ZM42.1419 7.82273C42.1238 7.90908 42.0967 8.01016 42.0712 8.08914L41.7677 9.07582C41.4618 9.01257 41.3901 8.82514 41.3573 8.71971C41.4725 8.53228 41.7218 8.54232 41.7218 8.54232C41.6964 8.44861 41.59 8.36661 41.4912 8.36326C41.4065 8.36085 41.3942 8.382 41.3942 8.382C41.3942 8.382 41.4129 8.299 41.4129 8.18922C41.4129 8.07977 41.345 7.96029 41.2556 7.88565C41.1632 7.9623 41.0976 8.07977 41.0976 8.18922C41.0976 8.299 41.1164 8.382 41.1164 8.382C41.1164 8.382 41.0785 8.35422 40.9949 8.36326C40.9085 8.37295 40.8258 8.43187 40.789 8.54232C40.789 8.54232 41.021 8.53228 41.1555 8.72004C41.0799 8.90212 40.8787 9.00018 40.6769 9.00018C40.2843 9.00018 40.0694 8.61763 40.0694 8.61763C40.0694 8.61763 39.8211 9.00018 39.4646 9.00018C39.2665 9.00018 39.0687 8.90212 38.9934 8.72004C39.1132 8.53228 39.3599 8.54232 39.3599 8.54232C39.3227 8.43187 39.2404 8.37297 39.1537 8.36326C39.0694 8.35421 39.0322 8.382 39.0322 8.382C39.0322 8.382 39.051 8.299 39.051 8.18922C39.051 8.07977 38.9914 7.97066 38.893 7.88565C38.804 7.95159 38.7357 8.07977 38.7357 8.18922C38.7357 8.299 38.7544 8.382 38.7544 8.382C38.7544 8.382 38.7243 8.3559 38.6413 8.36326C38.5332 8.37295 38.4495 8.45999 38.4264 8.54232C38.4264 8.54232 38.6714 8.5363 38.7922 8.71971C38.7648 8.81911 38.6871 9.01257 38.3809 9.07582L38.0783 8.08914C38.0522 8.01016 38.0248 7.90908 38.007 7.82273C37.9793 7.69153 37.9645 7.54928 37.9699 7.46126C37.9699 7.24002 38.0496 7.0208 38.1593 6.86784C38.2698 6.71389 38.4284 6.60611 38.6082 6.55624C38.7029 6.52913 38.8016 6.51675 38.9007 6.51675C39.1202 6.51702 39.3063 6.5539 39.5815 6.66033C39.6226 6.67876 39.6976 6.7015 39.7896 6.71958C39.7655 6.67506 39.7511 6.62519 39.7511 6.57164C39.7511 6.39593 39.8941 6.25435 40.0694 6.25435C40.2451 6.25435 40.3874 6.39593 40.3874 6.57164C40.3874 6.6262 40.3723 6.67673 40.3482 6.72158C40.445 6.70351 40.5246 6.67975 40.5665 6.66033C40.8426 6.5539 41.029 6.51708 41.2482 6.51675C41.347 6.51675 41.4457 6.52912 41.5411 6.55624C41.7198 6.60611 41.8785 6.71389 41.9896 6.86784C42.1 7.0208 42.1787 7.24002 42.1787 7.46126C42.1844 7.54928 42.1693 7.69153 42.1419 7.82273V7.82273ZM41.3215 9.16184H40.8362V9.39077H41.3215V9.16184ZM39.2632 9.17724H38.7792V9.40282H39.2632V9.17724ZM39.7093 9.282L40.0694 9.43294L40.4363 9.282L40.0694 9.10126L39.7093 9.282ZM41.7155 9.60163H38.4247V9.85131H41.7155V9.60163ZM34.563 7.94121L34.954 8.33213L35.3422 7.94389L34.563 7.94121ZM35.0912 8.47505L35.4818 8.86564V8.08412L35.0912 8.47505ZM34.4198 8.08412V8.86564L34.8104 8.47505L34.4198 8.08412V8.08412ZM36.6636 7.82808L36.6787 7.78323C36.68 7.78323 36.7302 7.64333 36.7295 7.44954C36.7295 7.28287 36.6827 7.14296 36.6127 7.04523C36.5428 6.94817 36.446 6.88291 36.3323 6.84977C36.2663 6.83205 36.1947 6.82266 36.1227 6.82266L36.1214 6.82239C35.9704 6.82239 35.7649 6.87862 35.5578 6.94088C35.4487 6.97836 35.2227 7.03961 34.9503 7.03994H34.9484C34.6753 7.03968 34.4501 6.97836 34.3416 6.94088C34.1328 6.87862 33.9289 6.82239 33.7777 6.82239L33.7753 6.82266C33.7026 6.82266 33.6333 6.83203 33.5667 6.84977C33.4519 6.88291 33.3552 6.94817 33.2853 7.04523C33.2153 7.14296 33.1691 7.28287 33.1685 7.44954C33.1676 7.64333 33.2193 7.78323 33.2193 7.78323L33.2351 7.82808C33.6072 7.54326 34.0588 7.41373 34.5722 7.35884C34.7706 7.33943 35.0397 7.3314 35.3259 7.35884C35.84 7.41373 36.2908 7.54326 36.6637 7.82808H36.6636ZM35.4102 5.32289V5.92769L35.1077 5.62512L35.4102 5.32289ZM35.258 6.07428H34.6589L34.9594 5.77507L35.258 6.07428ZM34.5069 5.92769V5.32289L34.8091 5.62512L34.5069 5.92769ZM34.9594 5.47619L34.6589 5.1763H35.258L34.9594 5.47619ZM37.0164 7.82273C36.9994 7.90908 36.9713 8.01016 36.9458 8.08914L36.6423 9.07582C36.3363 9.01257 36.2651 8.82514 36.2319 8.71971C36.3471 8.53228 36.5971 8.54232 36.5971 8.54232C36.571 8.44861 36.4652 8.36661 36.3665 8.36326C36.2815 8.36085 36.2691 8.382 36.2691 8.382C36.2691 8.382 36.2875 8.299 36.2875 8.18922C36.2875 8.07977 36.2209 7.96029 36.1305 7.88565C36.0378 7.9623 35.9725 8.07977 35.9725 8.18922C35.9725 8.299 35.9909 8.382 35.9909 8.382C35.9909 8.382 35.9541 8.35422 35.8694 8.36326C35.7838 8.37295 35.7008 8.43187 35.6636 8.54232C35.6636 8.54232 35.8962 8.53228 36.0301 8.72004C35.9551 8.90212 35.7543 9.00018 35.5518 9.00018C35.1589 9.00018 34.945 8.61763 34.945 8.61763C34.945 8.61763 34.6957 9.00018 34.3396 9.00018C34.1411 9.00018 33.9436 8.90212 33.8686 8.72004C33.9888 8.53228 34.2345 8.54232 34.2345 8.54232C34.1973 8.43187 34.1143 8.37297 34.0286 8.36326C33.9446 8.35421 33.9071 8.382 33.9071 8.382C33.9071 8.382 33.9256 8.299 33.9256 8.18922C33.9256 8.07977 33.866 7.97066 33.7686 7.88565C33.6792 7.95159 33.6106 8.07977 33.6106 8.18922C33.6106 8.299 33.629 8.382 33.629 8.382C33.629 8.382 33.5996 8.3559 33.5159 8.36326C33.4081 8.37295 33.3245 8.45999 33.3017 8.54232C33.3017 8.54232 33.546 8.5363 33.6675 8.71971C33.6394 8.81911 33.5611 9.01257 33.2565 9.07582L32.9529 8.08914C32.9268 8.01016 32.8994 7.90908 32.8817 7.82273C32.8549 7.69153 32.8385 7.54928 32.8445 7.46126C32.8445 7.24002 32.9242 7.0208 33.0346 6.86784C33.1451 6.71389 33.303 6.60611 33.4824 6.55624C33.5778 6.52913 33.6766 6.51675 33.7753 6.51675C33.9949 6.51702 34.1809 6.5539 34.4571 6.66033C34.4982 6.67876 34.5729 6.7015 34.6642 6.71958C34.6401 6.67506 34.6264 6.62519 34.6264 6.57164C34.6264 6.39593 34.7687 6.25435 34.9444 6.25435C35.1201 6.25435 35.262 6.39593 35.262 6.57164C35.262 6.6262 35.2476 6.67673 35.2228 6.72158C35.3199 6.70351 35.3992 6.67975 35.4417 6.66033C35.7172 6.5539 35.9039 6.51708 36.1228 6.51675C36.2216 6.51675 36.32 6.52912 36.416 6.55624C36.5958 6.60611 36.7537 6.71389 36.8642 6.86784C36.9746 7.0208 37.0536 7.24002 37.0536 7.46126C37.059 7.54928 37.0439 7.69153 37.0165 7.82273H37.0164ZM36.1971 9.16184H35.7118V9.39077H36.1971V9.16184ZM34.1384 9.17724H33.6538V9.40282H34.1384V9.17724ZM34.5846 9.282L34.9444 9.43294L35.3109 9.282L34.9444 9.10126L34.5846 9.282V9.282ZM36.5917 9.60163H33.2997V9.85131H36.5917V9.60163ZM37.1152 4.15749L37.5065 4.54841L37.8954 4.16017L37.1152 4.15749V4.15749ZM37.6447 4.69099L38.0353 5.08158V4.30007L37.6447 4.69099ZM36.9733 4.30007V5.08158L37.3639 4.69099L36.9733 4.30007ZM39.2158 4.04403L39.2322 3.99951C39.2322 3.99925 39.2837 3.85928 39.283 3.66616C39.2825 3.49915 39.2365 3.35891 39.1662 3.26151C39.0956 3.16378 38.9996 3.09852 38.8851 3.06605C38.8185 3.04763 38.7485 3.03894 38.6762 3.03894L38.6741 3.03814C38.5231 3.03814 38.318 3.0947 38.1105 3.15662C38.0014 3.1941 37.7764 3.25602 37.5037 3.25602H37.5018C37.2287 3.25602 37.0028 3.1941 36.8943 3.15662C36.6865 3.0947 36.482 3.03814 36.33 3.03814L36.3287 3.03894C36.2561 3.03894 36.1858 3.04764 36.1202 3.06605C36.0047 3.09852 35.9086 3.16378 35.8387 3.26151C35.7687 3.35891 35.7219 3.49915 35.7219 3.66616C35.7214 3.85928 35.7721 3.99918 35.7721 3.99951L35.7885 4.04403C36.1607 3.7592 36.6115 3.62934 37.1249 3.57512C37.3234 3.55504 37.5925 3.54734 37.8793 3.57512C38.3934 3.62934 38.8446 3.7592 39.2158 4.04403H39.2158ZM37.9637 1.53917V2.14363L37.6611 1.8414L37.9637 1.53917ZM37.8114 2.29023H37.2123L37.5122 1.99101L37.8114 2.29023ZM37.0597 2.14363V1.53917L37.3626 1.8414L37.0597 2.14363V2.14363ZM37.5122 1.69213L37.2123 1.39258H37.8114L37.5122 1.69213ZM39.5699 4.03867C39.5522 4.12469 39.5247 4.22644 39.4979 4.30542L39.1954 5.2921C38.8891 5.22851 38.8185 5.04075 38.7847 4.93599C38.9008 4.74822 39.1502 4.75793 39.1502 4.75793C39.1237 4.66422 39.0186 4.58255 38.9192 4.57954C38.8349 4.57651 38.8225 4.59761 38.8225 4.59761C38.8225 4.59761 38.8402 4.51461 38.8402 4.40516C38.8402 4.29605 38.773 4.17623 38.6839 4.10159C38.5912 4.17857 38.526 4.29605 38.526 4.40516C38.526 4.51461 38.5447 4.59761 38.5447 4.59761C38.5447 4.59761 38.5069 4.5705 38.4232 4.57954C38.3365 4.58891 38.2542 4.64815 38.217 4.75793C38.217 4.75793 38.449 4.74824 38.5835 4.93632C38.5082 5.11806 38.3071 5.21579 38.1052 5.21579C37.7126 5.21579 37.4978 4.83357 37.4978 4.83357C37.4978 4.83357 37.2494 5.21579 36.893 5.21579C36.6945 5.21579 36.4964 5.11806 36.4214 4.93632C36.5416 4.74822 36.7882 4.75793 36.7882 4.75793C36.7507 4.64815 36.6677 4.58891 36.5814 4.57954C36.4977 4.57049 36.4606 4.59761 36.4606 4.59761C36.4606 4.59761 36.479 4.51461 36.479 4.40516C36.479 4.29605 36.4194 4.18694 36.321 4.10159C36.232 4.16753 36.164 4.29605 36.164 4.40516C36.164 4.51461 36.1828 4.59761 36.1828 4.59761C36.1828 4.59761 36.1516 4.57183 36.0693 4.57954C35.9615 4.58891 35.8772 4.67593 35.8544 4.75793C35.8544 4.75793 36.0981 4.75223 36.2202 4.93599C36.1928 5.03539 36.1145 5.22851 35.8092 5.2921L35.5057 4.30542C35.4802 4.22644 35.4521 4.12469 35.435 4.03867C35.4076 3.90714 35.3919 3.76556 35.3972 3.67754C35.3972 3.45563 35.4769 3.23674 35.5873 3.08412C35.6981 2.93016 35.8568 2.82206 36.0355 2.77219C36.1309 2.74541 36.2299 2.73303 36.3287 2.73303C36.5469 2.73303 36.7343 2.77018 37.0098 2.87628C37.0506 2.89537 37.1259 2.91778 37.217 2.93585C37.1935 2.89134 37.1791 2.84147 37.1791 2.78792C37.1791 2.6122 37.3214 2.46996 37.4978 2.46996C37.6728 2.46996 37.8154 2.6122 37.8154 2.78792C37.8154 2.84214 37.8003 2.89268 37.7766 2.93753C37.8726 2.91945 37.9519 2.89569 37.9948 2.87628C38.2706 2.77018 38.4567 2.73303 38.6762 2.73303C38.7753 2.73303 38.874 2.7454 38.9687 2.77219C39.1485 2.82206 39.3065 2.93016 39.4169 3.08412C39.5274 3.23674 39.607 3.45563 39.607 3.67754C39.6124 3.76556 39.5973 3.90714 39.5699 4.03867H39.5699ZM38.7495 5.37845H38.2642V5.60705H38.7495V5.37845ZM36.6911 5.39286H36.2072V5.61844H36.6911V5.39286ZM37.138 5.49829L37.4978 5.64924L37.8643 5.49829L37.4978 5.31688L37.138 5.49829ZM39.1445 6.06727H35.8531V5.81759H39.1445V6.06727Z" fill="black"/>
<path d="M30.9398 0.348633H30.6908V11.6516H30.9398V0.348633Z" fill="black"/>
</svg>
