<svg width="46" height="12" viewBox="0 0 46 12" fill="none" xmlns="http://www.w3.org/2000/svg">
<g clip-path="url(#clip0_1346_2200)">
<path d="M0.996959 7.3902H0V4.36157H0.996959C2.05171 4.36157 2.61702 4.87685 2.61702 5.87381C2.61702 6.86228 2.14744 7.3902 0.996959 7.3902ZM0.924716 4.8223H0.597815V6.92929H0.917492C1.74107 6.94608 2.00656 6.54405 2.00656 5.87796C2.00656 5.14487 1.62548 4.8223 0.924716 4.8223Z" fill="black"/>
<path d="M3.5309 6.11242C3.54715 5.83591 3.68261 5.58034 3.99506 5.58034C4.29849 5.58034 4.44839 5.80647 4.43575 6.11242H3.5309ZM4.01312 5.22437C3.21664 5.22437 2.94031 5.78985 2.94031 6.32174C2.94031 6.95441 3.25818 7.42761 3.93727 7.44856C4.47729 7.45289 4.9559 7.28944 4.98841 6.69885H4.43575C4.43575 6.93762 4.2425 7.09258 4.01674 7.09258C3.63565 7.09258 3.51464 6.81192 3.50922 6.4684L5.03537 6.46424C5.08052 5.83591 4.8078 5.22437 4.01312 5.22437Z" fill="black"/>
<path d="M7.48623 7.39017H6.91551L6.9119 7.04665C6.81618 7.31883 6.55068 7.45718 6.22559 7.45718C5.83908 7.45718 5.47425 7.22256 5.47064 6.66123V5.2998H6.04859V6.58158C6.04498 6.8832 6.16237 7.05081 6.44593 7.05496C6.70239 7.05496 6.9119 6.90831 6.9119 6.50212V5.2998H7.48623V7.39017Z" fill="black"/>
<path d="M8.22666 5.30826V4.97721L8.78474 4.68408V5.30826H9.31753V5.71445H8.78474V6.72405C8.78474 6.92923 8.85517 7.04662 9.06468 7.05493C9.14415 7.05493 9.21639 7.06324 9.32114 7.03398V7.3943C9.04843 7.43204 8.73417 7.5032 8.47409 7.36485C8.27723 7.26028 8.22666 7.07588 8.22666 6.78275V5.71445H7.77875V5.30826H8.22666Z" fill="black"/>
<path d="M11.4867 6.48935C11.5788 6.67375 11.5752 6.91667 11.4615 7.08427C11.2646 7.38571 10.8365 7.4612 10.506 7.45289C10.0364 7.42345 9.61924 7.30208 9.63911 6.74075H10.2098C10.2044 6.98367 10.3561 7.07163 10.5729 7.07994C10.7824 7.07994 10.9919 7.00878 10.9919 6.81607C10.9919 6.6611 10.8456 6.5941 10.6577 6.5522C10.4428 6.50614 10.2893 6.48519 10.0491 6.38875C9.85765 6.29664 9.66801 6.14167 9.66801 5.84854C9.66801 5.60545 9.85765 5.42123 10.1051 5.32063C10.2712 5.24947 10.4771 5.22852 10.6541 5.22852C11.0515 5.22852 11.4831 5.36668 11.4578 5.86932H10.9214C10.9214 5.794 10.9052 5.7102 10.842 5.65999C10.7246 5.55524 10.3634 5.5426 10.2514 5.71435C10.1249 6.00766 10.5151 6.02861 10.9467 6.14583C11.2194 6.20868 11.4037 6.32174 11.4867 6.48935Z" fill="black"/>
<path d="M12.9153 5.22046C13.3723 5.22046 13.8455 5.42996 13.8455 6.00394L13.2838 5.9996C13.2838 5.73158 13.1375 5.56813 12.8612 5.58077C12.7889 5.58493 12.7131 5.61003 12.6516 5.64362C12.4783 5.74422 12.4241 6.02489 12.4241 6.30555C12.4241 6.60284 12.4963 6.89199 12.6264 6.99656C12.7131 7.08037 12.8684 7.10565 13.002 7.08037C13.2242 7.0428 13.291 6.8248 13.2964 6.63643L13.8455 6.63228C13.8527 7.23117 13.3632 7.45748 12.8521 7.44899C12.1694 7.42388 11.8552 6.97995 11.8552 6.32217C11.8552 5.65627 12.2362 5.22046 12.9153 5.22046Z" fill="black"/>
<path d="M14.288 4.36572H14.8659V5.6307C15.0176 5.36268 15.2434 5.24547 15.5486 5.24547C15.9351 5.24547 16.2999 5.53444 16.2999 5.94912V7.39019H15.7292V6.10823C15.7292 5.82341 15.6082 5.63504 15.3355 5.63504C15.0808 5.63504 14.8623 5.80246 14.8623 6.18788V7.39019H14.288V4.36572Z" fill="black"/>
<path d="M17.3385 6.11242C17.3547 5.83591 17.4884 5.58034 17.8026 5.58034C18.1042 5.58034 18.2559 5.80647 18.2433 6.11242H17.3385ZM17.8207 5.22437C17.0242 5.22437 16.7479 5.78985 16.7479 6.32174C16.7479 6.95441 17.0657 7.42761 17.7448 7.44856C18.2848 7.45289 18.7635 7.28944 18.796 6.69885H18.2433C18.2433 6.93762 18.0501 7.09258 17.8243 7.09258C17.4432 7.09258 17.3222 6.81192 17.3168 6.4684L18.8429 6.46424C18.8881 5.83591 18.6154 5.22437 17.8207 5.22437Z" fill="black"/>
<path d="M22.4063 7.30224C22.2113 7.36491 21.9584 7.39019 21.6875 7.39019H20.593V4.36987H21.7579C22.2781 4.36987 22.8217 4.53332 22.8434 5.11561C22.856 5.48423 22.605 5.71866 22.2907 5.82341C22.5328 5.88626 22.7296 5.95742 22.8633 6.18372C22.9807 6.38474 22.9897 6.65295 22.894 6.87492C22.7928 7.08442 22.6375 7.22259 22.4063 7.30224ZM21.7579 4.8223H21.1674V5.6056H21.767C22.0812 5.6056 22.2438 5.47574 22.2438 5.22018C22.2438 4.98141 22.0559 4.8223 21.7579 4.8223ZM21.8175 6.05802L21.1674 6.05387V6.94192H21.7959C22.2149 6.94192 22.3485 6.73657 22.3485 6.48119C22.3485 6.28432 22.2059 6.05387 21.8175 6.05802Z" fill="black"/>
<path d="M24.2341 7.08848C24.021 7.07168 23.8945 6.96693 23.8945 6.76591C23.8982 6.32613 24.4562 6.37218 24.7452 6.37218C24.7579 6.71985 24.729 7.07999 24.2341 7.08848ZM25.2943 5.8737C25.2943 5.44638 24.8337 5.23272 24.3009 5.23688C23.7934 5.24537 23.425 5.40864 23.4177 5.89881H23.974C23.9614 5.67251 24.1167 5.55529 24.3226 5.55114C24.6314 5.55114 24.7705 5.69346 24.7416 6.04546C24.4346 6.06208 24.0246 6.04113 23.7194 6.18363C23.4972 6.28838 23.3256 6.48524 23.3256 6.79932C23.3256 7.20154 23.6056 7.44446 24.0155 7.4571C24.3099 7.48636 24.6441 7.3565 24.7741 7.08432L24.7958 7.39009H25.2943C25.2943 6.88312 25.2943 6.38464 25.2943 5.8737Z" fill="black"/>
<path d="M25.8505 5.29972H26.4285V5.63493C26.5802 5.36257 26.8565 5.24536 27.1672 5.24536C27.5139 5.24536 27.8697 5.44638 27.8697 5.94901V7.39009H27.2918V6.10813C27.2954 5.83595 27.1617 5.63493 26.8981 5.63493C26.638 5.63493 26.4249 5.80236 26.4249 6.18778V7.39009H25.8505V5.29972Z" fill="black"/>
<path d="M29.8926 7.39019L29.013 6.19204L29.8095 5.29983H30.4886L29.6632 6.17109L30.6349 7.39019H29.8926ZM28.4279 4.36572H28.9968V7.39019H28.4279V4.36572Z" fill="black"/>
<path d="M33.6998 0H45.6514V12H33.6998V0ZM40.9623 2.84221L36.2938 9.10791H38.4036L43.0897 2.84221H40.9623ZM35.3636 10.338H43.9876V1.66231H35.3636V10.338Z" fill="black"/>
</g>
<defs>
<clipPath id="clip0_1346_2200">
<rect width="46" height="12" fill="white"/>
</clipPath>
</defs>
</svg>
