<svg width="46" height="12" viewBox="0 0 46 12" fill="none" xmlns="http://www.w3.org/2000/svg">
<path d="M20.0118 5.01176L15.0118 0V10.0118L20.0118 5.01176Z" fill="black"/>
<path d="M10.0118 5.01176L15.0118 0H5.01178L10.0118 5.01176Z" fill="black"/>
<path d="M0 5.01176L5.01176 10.0118V0L0 5.01176Z" fill="black"/>
<path d="M10.0118 5.01172L5.01178 10.0117H15.0118L10.0118 5.01172Z" fill="black"/>
<path d="M24.4 5.30576H22.5883V7.094H21.6824V2.90576H22.5883V4.62341H24.4V2.90576H25.3059V7.094H24.4V5.30576Z" fill="black"/>
<path d="M27.4941 7.17638C26.5882 7.17638 25.847 6.81168 25.8353 5.81168H26.7411C26.7529 6.25873 27.0117 6.52932 27.5059 6.52932C27.8706 6.52932 28.2941 6.34109 28.2941 5.92932C28.2941 5.59991 28.0117 5.50579 27.5411 5.36462L27.2353 5.28226C26.5764 5.09403 25.9176 4.83521 25.9176 4.08226C25.9176 3.15285 26.7882 2.83521 27.5764 2.83521C28.3882 2.83521 29.0941 3.11756 29.1059 4.04697H28.2C28.1647 3.6705 27.9411 3.44697 27.5176 3.44697C27.1764 3.44697 26.847 3.62344 26.847 3.99991C26.847 4.30579 27.1294 4.39991 27.7176 4.58815L28.0706 4.69403C28.7882 4.91756 29.247 5.16462 29.247 5.8705C29.2353 6.81168 28.3176 7.17638 27.4941 7.17638Z" fill="black"/>
<path d="M29.753 2.91782H31.2118C31.4824 2.90605 31.7648 2.91782 32.0353 2.96488C32.5412 3.08252 32.9295 3.41194 32.9295 3.97664C32.9295 4.51782 32.5883 4.78841 32.0942 4.91782C32.6589 5.0237 33.0824 5.30605 33.0824 5.92958C33.0824 6.88252 32.1412 7.09429 31.4118 7.09429H29.7648L29.753 2.91782ZM31.2118 4.65899C31.6118 4.65899 32.0236 4.57664 32.0236 4.09429C32.0236 3.65899 31.6471 3.54135 31.2706 3.54135H30.6353V4.65899H31.2118V4.65899ZM31.2942 6.47076C31.7177 6.47076 32.1295 6.37664 32.1295 5.85899C32.1295 5.34135 31.7765 5.24723 31.3412 5.24723H30.6236V6.47076H31.2942Z" fill="black"/>
<path d="M35.4353 7.17667C34.0824 7.17667 33.4824 6.31785 33.4824 5.0355C33.4824 3.75314 34.1529 2.82373 35.4824 2.82373C36.3177 2.82373 37.1294 3.2002 37.1529 4.14138H36.2118C36.1647 3.71785 35.8824 3.50608 35.4824 3.50608C34.6588 3.50608 34.4118 4.38844 34.4118 5.05902C34.4118 5.72961 34.6588 6.50608 35.4471 6.50608C35.8588 6.50608 36.1647 6.28255 36.2235 5.85902H37.1647C37.0706 6.82373 36.3059 7.17667 35.4353 7.17667Z" fill="black"/>
</svg>
