<svg width="46" height="12" viewBox="0 0 46 12" fill="none" xmlns="http://www.w3.org/2000/svg">
<mask id="mask0_46_2" style="mask-type:luminance" maskUnits="userSpaceOnUse" x="0" y="0" width="46" height="9">
<path d="M45.8194 0H0V8.6443H45.8194V0Z" fill="white"/>
</mask>
<g mask="url(#mask0_46_2)">
<path d="M13.8146 5.46445C13.6278 5.60118 13.4013 5.67281 13.1699 5.66833C12.8033 5.66833 12.5141 5.54188 12.3021 5.28894C12.0901 5.03603 11.9841 4.70718 11.9841 4.30244C11.9841 3.8977 12.0885 3.56736 12.2975 3.31137C12.5064 3.0554 12.7907 2.92741 13.1502 2.92741C13.3859 2.92457 13.6156 3.00143 13.8022 3.14552C13.9834 3.27719 14.1059 3.47453 14.1435 3.69533H15.4334C15.4046 3.34487 15.2776 3.00961 15.0668 2.7281C14.8514 2.44072 14.5656 2.21365 14.237 2.06876C13.8825 1.9116 13.4985 1.83238 13.1108 1.83645C12.6608 1.82739 12.2164 1.93808 11.8233 2.15719C11.4547 2.36435 11.1535 2.67305 10.9554 3.04654C10.7557 3.43529 10.6514 3.86606 10.6514 4.30315C10.6514 4.74021 10.7557 5.171 10.9554 5.55975C11.1536 5.93312 11.4548 6.24182 11.8233 6.44909C12.2158 6.66761 12.6593 6.77826 13.1085 6.76983C13.4944 6.7739 13.8764 6.69286 14.2274 6.53248C14.5565 6.38414 14.8445 6.15803 15.0668 5.8736C15.2818 5.60149 15.4186 5.276 15.4627 4.93202H14.1655C14.1176 5.14646 13.9927 5.33586 13.8146 5.46445Z" fill="black"/>
<path d="M19.6194 2.15381C19.2204 1.9389 18.7731 1.82959 18.32 1.83628C17.8684 1.82898 17.4225 1.93835 17.0256 2.15381C16.65 2.35762 16.3392 2.66274 16.1284 3.03445C15.9168 3.42293 15.8059 3.85829 15.8059 4.30066C15.8059 4.74306 15.9168 5.17843 16.1284 5.5669C16.3385 5.93916 16.6491 6.2448 17.0247 6.44892C17.421 6.66383 17.8659 6.77333 18.3168 6.76691C18.7699 6.7733 19.2172 6.66383 19.6162 6.44892C19.994 6.24628 20.307 5.94123 20.5193 5.56872C20.731 5.18025 20.8419 4.74492 20.8419 4.30251C20.8419 3.86011 20.731 3.42478 20.5193 3.03629C20.308 2.66357 19.9962 2.35776 19.6194 2.15381ZM19.2116 5.28648H19.2093C19.0992 5.4105 18.9631 5.50883 18.8108 5.57446C18.6585 5.6401 18.4936 5.67146 18.3278 5.66634C17.9612 5.66634 17.6648 5.53985 17.4384 5.28695C17.2109 5.04043 17.0971 4.71176 17.0971 4.30091C17.0971 3.89006 17.2109 3.55802 17.4384 3.30478C17.5528 3.18444 17.6906 3.0887 17.8432 3.02342C17.9959 2.95814 18.1603 2.92472 18.3263 2.92519C18.4924 2.92567 18.6566 2.96002 18.8089 3.02616C18.9612 3.09228 19.0984 3.18882 19.2121 3.30984C19.4397 3.5658 19.5534 3.89617 19.5534 4.30091C19.5534 4.70565 19.4395 5.03385 19.2116 5.28648Z" fill="black"/>
<path d="M24.8025 2.40251C24.6574 2.2183 24.4659 2.07598 24.2476 1.99014C24 1.88669 23.7338 1.83493 23.4655 1.83802C22.9972 1.83802 22.5957 1.93928 22.2609 2.1418C21.9242 2.34598 21.6557 2.64544 21.4893 3.00229C21.311 3.4123 21.219 3.85461 21.219 4.30173C21.219 4.74883 21.311 5.19117 21.4893 5.60116C21.657 5.96017 21.9283 6.26081 22.2682 6.46441C22.6064 6.66632 23.0127 6.76743 23.487 6.76773C23.7571 6.76965 24.0248 6.71729 24.2742 6.61377C24.491 6.531 24.6789 6.38674 24.8149 6.19866V6.83189C24.8238 7.04089 24.7506 7.24511 24.611 7.40096C24.5453 7.472 24.4653 7.52822 24.3761 7.56582C24.287 7.60345 24.1908 7.62157 24.0941 7.61904H21.8948V8.62709H24.2843C24.8283 8.62709 25.2645 8.47541 25.5929 8.17209C25.9213 7.86877 26.0847 7.46616 26.0832 6.9643V1.90949H24.8002L24.8025 2.40251ZM24.5592 5.2928C24.3375 5.54237 24.0427 5.66728 23.6749 5.66759C23.3144 5.66759 23.0252 5.54435 22.8071 5.29783C22.589 5.05135 22.4796 4.71928 22.479 4.30173C22.479 3.88415 22.5888 3.5506 22.8084 3.30103C23.0281 3.05147 23.3173 2.92669 23.6763 2.92669C24.0428 2.92669 24.3368 3.05147 24.5583 3.30103C24.7798 3.5506 24.8905 3.88415 24.8905 4.30173C24.8902 4.71289 24.7798 5.04323 24.5592 5.2928Z" fill="black"/>
<path d="M30.5194 2.07825C30.2362 1.91323 29.9129 1.82952 29.5852 1.83632C29.2809 1.8307 28.9797 1.8991 28.7077 2.03564C28.4614 2.15915 28.2581 2.35414 28.1244 2.59509V1.91147H26.8465V6.69182H28.1267V4.07414C28.1267 3.75159 28.2216 3.4875 28.4113 3.28192C28.5051 3.18023 28.6198 3.10002 28.7475 3.04688C28.8753 2.99372 29.013 2.96887 29.1513 2.97402C29.2784 2.9698 29.4049 2.9935 29.5219 3.04346C29.6389 3.09342 29.7436 3.16841 29.8285 3.26315C30.0057 3.46531 30.099 3.72757 30.0892 3.99625V6.68951H31.3692V3.72133C31.3757 3.38146 31.2985 3.0452 31.1445 2.74217C31.0018 2.46705 30.7854 2.23713 30.5194 2.07825Z" fill="black"/>
<path d="M33.3688 1.91309H32.0889V6.69296H33.3688V1.91309Z" fill="black"/>
<path d="M37.0803 4.23925L35.361 3.40489C35.3095 3.38288 35.2656 3.34605 35.2351 3.29903C35.2073 3.25698 35.1925 3.2075 35.1931 3.15702C35.1928 3.12538 35.1996 3.0941 35.2125 3.06537C35.2255 3.03661 35.2443 3.01097 35.2681 2.99023C35.316 2.9445 35.3796 2.91905 35.4459 2.9192H37.6394V1.91118H35.1894C34.9677 1.90931 34.7498 1.96657 34.558 2.07704C34.3672 2.18553 34.2098 2.34394 34.1024 2.53524C33.9931 2.72909 33.936 2.94811 33.9366 3.17076C33.9341 3.40925 34.0054 3.64271 34.1406 3.83927C34.2823 4.04309 34.4731 4.20792 34.6954 4.31854L36.4027 5.16253C36.4518 5.18633 36.4941 5.22208 36.5259 5.26654C36.5561 5.30791 36.5722 5.35786 36.5715 5.40904C36.5728 5.44634 36.566 5.48348 36.5521 5.51809C36.5379 5.55251 36.5169 5.58369 36.49 5.60971C36.4632 5.63552 36.4311 5.6555 36.3962 5.66837C36.3613 5.68131 36.3243 5.68662 36.2872 5.68396H34.1354V6.69198H36.5441C36.7716 6.69294 36.9945 6.63144 37.1893 6.51419C37.3844 6.40175 37.5477 6.24137 37.6635 6.04823C37.7802 5.85456 37.8416 5.63275 37.8413 5.40673C37.8423 5.16342 37.7697 4.92549 37.6332 4.72405C37.4949 4.5164 37.3041 4.34913 37.0803 4.23925Z" fill="black"/>
<path d="M45.6061 2.68773C45.4681 2.42646 45.2594 2.20937 45.0037 2.06138C44.7333 1.90644 44.4261 1.8273 44.1146 1.83228C43.7701 1.82664 43.4308 1.91521 43.1332 2.08841C42.8436 2.26039 42.6392 2.46963 42.5204 2.71614C42.4166 2.4453 42.2268 2.21615 41.9798 2.06413C41.7325 1.9114 41.4228 1.83503 41.0502 1.83503C40.7643 1.82855 40.4822 1.90067 40.2346 2.04351C40.0049 2.17812 39.8153 2.37116 39.6847 2.60297V1.91247H38.4017V6.69281H39.6819V3.97066C39.6819 3.65422 39.7672 3.39977 39.9382 3.20734C40.0219 3.11235 40.1259 3.03714 40.2423 2.98708C40.359 2.93701 40.4849 2.91334 40.6115 2.91775C40.7313 2.91411 40.8502 2.93843 40.9588 2.98877C41.0675 3.03863 41.1629 3.11333 41.2376 3.20688C41.3957 3.39931 41.4747 3.65376 41.4747 3.97023V6.69235H42.755V3.97066C42.755 3.65422 42.8387 3.39977 43.006 3.20734C43.0903 3.11139 43.1949 3.03555 43.3125 2.98543C43.4299 2.93532 43.5571 2.91219 43.6846 2.91775C43.8043 2.91407 43.9235 2.93828 44.0322 2.98845C44.1409 3.03863 44.2366 3.1134 44.3116 3.20688C44.4693 3.39931 44.5484 3.65376 44.5484 3.97023V6.68914H45.8194V3.56975C45.8231 3.26254 45.7496 2.95928 45.6061 2.68773Z" fill="black"/>
<path d="M4.72216 2.88159V0.018786C4.59065 0.00641472 4.45684 0 4.32215 0C3.17585 0 2.07649 0.455369 1.26593 1.26593C0.455369 2.07649 0 3.17585 0 4.32215C0 5.46844 0.455369 6.56781 1.26593 7.37837C2.07649 8.18893 3.17585 8.6443 4.32215 8.6443C4.45684 8.6443 4.59065 8.63741 4.72216 8.62549V5.76272H2.88158V2.88159H4.72216Z" fill="black"/>
<path d="M4.87183 0.186523C5.84401 0.316306 6.74123 0.78504 7.40405 1.5127C8.10391 2.28107 8.49191 3.28293 8.49194 4.32227C8.49194 5.36161 8.10393 6.36345 7.40405 7.13184C6.74125 7.85954 5.844 8.32722 4.87183 8.45703V5.61328H3.03198V3.03223H4.87183V0.186523Z" stroke="black" stroke-width="0.3"/>
</g>
</svg>
