<svg width="46" height="12" viewBox="0 0 46 12" fill="none" xmlns="http://www.w3.org/2000/svg">
<g clip-path="url(#clip0_1376_24103)">
<path d="M10.9353 8.84963C11.4505 7.97713 11.7497 6.95506 11.7497 5.87482C11.7497 4.78627 11.4505 3.77251 10.9353 2.90001C10.4201 3.77251 10.121 4.79458 10.121 5.87482C10.1293 6.96337 10.4201 7.97713 10.9353 8.84963Z" fill="black"/>
<path d="M10.9353 8.84963C10.4035 7.9522 10.121 6.92182 10.121 5.87482C10.121 4.82782 10.4035 3.79744 10.9353 2.90001C11.4671 3.79744 11.7497 4.82782 11.7497 5.87482C11.7497 6.92182 11.4671 7.9522 10.9353 8.84963ZM10.9353 2.90001C10.4035 3.79744 10.121 4.82782 10.121 5.87482C10.121 6.92182 10.4035 7.9522 10.9353 8.84963C11.4671 7.9522 11.7497 6.92182 11.7497 5.87482C11.7497 4.82782 11.4671 3.79744 10.9353 2.90001Z" fill="black"/>
<path d="M21.0647 8.84963C21.5799 7.97713 21.879 6.96337 21.879 5.87482C21.879 4.78627 21.5799 3.77251 21.0647 2.90001C20.5495 3.77251 20.2503 4.79458 20.2503 5.87482C20.2503 6.96337 20.5495 7.97713 21.0647 8.84963Z" fill="black"/>
<path d="M5.875 0C8.0271 5.86443e-05 9.9135 1.16326 10.9355 2.8916C10.4204 3.77241 10.1294 4.78645 10.1211 5.875C10.1211 6.95518 10.4204 7.97715 10.9355 8.84961C9.9135 10.5863 8.03541 11.7499 5.875 11.75C2.62603 11.75 8.76213e-05 9.11564 0 5.875C0 2.62597 2.62597 0 5.875 0ZM15.9961 0C18.1564 8.96572e-05 20.0424 1.16338 21.0645 2.8916C20.5493 3.77233 20.2506 4.78609 20.2422 5.86621C20.2422 6.94645 20.5414 7.9693 21.0566 8.8418C20.0346 10.5783 18.1564 11.7411 15.9961 11.7412C13.8441 11.7412 11.9577 10.5782 10.9355 8.8418C11.4507 7.9693 11.75 6.95476 11.75 5.86621C11.7499 4.78609 11.4507 3.76402 10.9355 2.8916C11.9576 1.16331 13.8357 0 15.9961 0ZM26.125 0C29.3656 0 31.9998 2.62563 32 5.86621C32 9.11524 29.3657 11.7412 26.125 11.7412C23.973 11.7412 22.0865 10.5783 21.0645 8.8418C21.5796 7.9693 21.8789 6.95476 21.8789 5.86621C21.8789 4.78608 21.5796 3.76402 21.0645 2.8916C22.0865 1.16326 23.9646 5.82285e-05 26.125 0ZM16.0459 2.61719C14.5751 2.61719 13.5693 3.38205 13.5693 4.57031C13.5694 5.60894 14.3425 5.99159 14.625 6.09961C14.816 6.18259 15.0156 6.22362 15.4141 6.32324L16.1699 6.48145C16.7348 6.61437 16.7519 6.62303 16.9014 6.67285C17.0925 6.75595 17.375 6.89704 17.375 7.2959C17.375 7.51192 17.2922 7.82796 16.8438 8.01074C16.6194 8.10215 16.3943 8.11816 16.1699 8.11816C14.9155 8.11802 14.4333 7.47046 14.2588 7.21289L13.2949 7.93555C13.7685 8.65843 14.4502 8.92417 14.8574 9.04883C15.2396 9.15683 15.6301 9.19042 15.9707 9.19043C17.3001 9.19043 18.6297 8.61704 18.6299 7.17969C18.6382 5.84193 17.4501 5.49287 16.6025 5.31836L15.9541 5.17676C15.3891 5.06875 14.7988 4.96046 14.7988 4.42871C14.799 3.94692 15.3481 3.66406 15.9795 3.66406C16.9264 3.66417 17.342 4.22085 17.5664 4.54492L18.4971 3.80566C18.0484 3.21573 17.3503 2.61725 16.0459 2.61719ZM3.52344 3.82227H5.19336V9.05762H6.37305V3.82227H8.08496V2.75H3.52344V3.82227ZM24.0811 9.05762H26.499C27.2136 9.05762 27.5299 9.04947 27.9287 8.9082C28.6847 8.63395 29.0088 7.99337 29.0088 7.27051C29.0087 6.29859 28.4019 5.73408 27.7041 5.60938C28.0446 5.54293 28.2938 5.40968 28.4932 5.15234C28.676 4.91137 28.7344 4.57011 28.7344 4.2959C28.7343 3.60632 28.2857 3.04955 27.6543 2.8584C27.3552 2.76699 27.1303 2.75831 26.291 2.75H24.0811V9.05762ZM26.374 6.18262C26.7728 6.18262 27.4381 6.1905 27.7207 6.69727C27.8121 6.85506 27.8369 7.02968 27.8369 7.1709C27.8369 7.46979 27.7124 7.71071 27.5547 7.82715C27.2472 8.04319 27.0642 8.04395 26.3662 8.04395H25.2441V6.17383L26.374 6.18262ZM25.9502 3.71484C26.8061 3.72315 26.9314 3.73081 27.1807 3.87207C27.4215 4.01327 27.5458 4.25428 27.5459 4.49512C27.5459 4.78594 27.3801 5.0277 27.1309 5.15234C26.9148 5.26868 26.6151 5.27637 26.3242 5.27637C26.183 5.28465 25.9423 5.28516 25.6104 5.28516H25.2441V3.71484H25.9502Z" fill="black"/>
</g>
<defs>
<clipPath id="clip0_1376_24103">
<rect width="32" height="11.7497" fill="white"/>
</clipPath>
</defs>
</svg>
