<svg width="46" height="12" viewBox="0 0 46 12" fill="none" xmlns="http://www.w3.org/2000/svg">
<g clip-path="url(#clip0_1376_24088)">
<path d="M26.1252 -1.52588e-05C23.9647 -1.52588e-05 22.0867 1.16332 21.0647 2.8917C21.5798 3.7642 21.879 4.78627 21.879 5.86651C21.879 6.95506 21.5798 7.96882 21.0647 8.84133C22.0867 10.578 23.973 11.7414 26.1252 11.7414C29.3659 11.7414 32 9.11554 32 5.86651C32 2.6258 29.3659 -1.52588e-05 26.1252 -1.52588e-05Z" fill="black"/>
<path d="M21.0647 2.8917C20.0426 1.16332 18.1563 -1.52588e-05 15.9958 -1.52588e-05C13.8354 -1.52588e-05 11.9574 1.16332 10.9353 2.8917C11.4505 3.7642 11.7497 4.78627 11.7497 5.86651C11.7497 6.95506 11.4505 7.96882 10.9353 8.84133C11.9574 10.578 13.8437 11.7414 15.9958 11.7414C18.1563 11.7414 20.0343 10.578 21.0563 8.84133C20.5412 7.96882 20.242 6.94675 20.242 5.86651C20.2503 4.78627 20.5495 3.77251 21.0647 2.8917Z" fill="black"/>
<path d="M10.9353 2.89172C9.91327 1.16333 8.02701 0 5.87484 0C2.62581 0 0 2.62581 0 5.87484C0 9.11555 2.62581 11.7497 5.87484 11.7497C8.03531 11.7497 9.91327 10.5863 10.9353 8.84965C10.4202 7.97715 10.121 6.95508 10.121 5.87484C10.1293 4.78629 10.4202 3.77253 10.9353 2.89172Z" fill="black"/>
<path d="M10.9353 8.84963C11.4505 7.97713 11.7497 6.95506 11.7497 5.87482C11.7497 4.78627 11.4505 3.77251 10.9353 2.90001C10.4201 3.77251 10.121 4.79458 10.121 5.87482C10.1293 6.96337 10.4201 7.97713 10.9353 8.84963Z" fill="black"/>
<path d="M10.9353 8.84963C10.4035 7.9522 10.121 6.92182 10.121 5.87482C10.121 4.82782 10.4035 3.79744 10.9353 2.90001C11.4671 3.79744 11.7497 4.82782 11.7497 5.87482C11.7497 6.92182 11.4671 7.9522 10.9353 8.84963ZM10.9353 2.90001C10.4035 3.79744 10.121 4.82782 10.121 5.87482C10.121 6.92182 10.4035 7.9522 10.9353 8.84963C11.4671 7.9522 11.7497 6.92182 11.7497 5.87482C11.7497 4.82782 11.4671 3.79744 10.9353 2.90001Z" fill="black"/>
<path d="M21.0647 8.84963C21.5799 7.97713 21.879 6.96337 21.879 5.87482C21.879 4.78627 21.5799 3.77251 21.0647 2.90001C20.5495 3.77251 20.2503 4.79458 20.2503 5.87482C20.2503 6.96337 20.5495 7.97713 21.0647 8.84963Z" fill="black"/>
<path d="M8.08517 3.82239H6.37341V9.05739H5.19345V3.82239H3.52324V2.75046H8.08517V3.82239Z" fill="white"/>
<path d="M24.081 2.75046H26.2914C27.1306 2.75877 27.355 2.76708 27.6541 2.85848C28.2856 3.0496 28.7344 3.60634 28.7344 4.29603C28.7344 4.57024 28.6762 4.91094 28.4934 5.15191C28.2939 5.40951 28.0447 5.54246 27.704 5.60894C28.402 5.73358 29.0086 6.29863 29.0086 7.27084C29.0086 7.99377 28.6845 8.6336 27.9283 8.90782C27.5295 9.04908 27.2137 9.05739 26.4991 9.05739H24.081V2.75046ZM25.2444 3.71436V5.28486H25.61C25.9424 5.28486 26.1833 5.28486 26.3246 5.27655C26.6154 5.27655 26.9146 5.26825 27.1306 5.15191C27.3799 5.02727 27.5461 4.78629 27.5461 4.49546C27.5461 4.25448 27.4214 4.01351 27.1805 3.87224C26.9312 3.73098 26.8065 3.72267 25.9507 3.71436H25.2444ZM25.2444 6.17398V8.04363H26.3661C27.0641 8.04363 27.2469 8.04363 27.5544 7.82758C27.7123 7.71125 27.8369 7.47027 27.8369 7.17113C27.8369 7.02987 27.812 6.85537 27.7206 6.69748C27.4381 6.1906 26.7733 6.18229 26.3744 6.18229L25.2444 6.17398Z" fill="white"/>
<path d="M16.6024 5.31809L15.9543 5.17683C15.3893 5.0688 14.7993 4.96078 14.7993 4.42897C14.7993 3.94702 15.3477 3.66449 15.9792 3.66449C16.9265 3.66449 17.342 4.22123 17.5663 4.5453L18.497 3.80576C18.0483 3.21578 17.3503 2.61749 16.0457 2.61749C14.5749 2.61749 13.5695 3.38197 13.5695 4.57023C13.5695 5.60892 14.3423 5.99116 14.6248 6.09919C14.8159 6.18228 15.0153 6.22383 15.4142 6.32354L16.1703 6.48142C16.7354 6.61438 16.752 6.62269 16.9016 6.67254C17.0927 6.75564 17.3752 6.8969 17.3752 7.29576C17.3752 7.51181 17.2921 7.82757 16.8434 8.01038C16.6191 8.10178 16.3947 8.1184 16.1703 8.1184C14.9156 8.1184 14.4337 7.47026 14.2592 7.21266L13.2952 7.93559C13.7689 8.65852 14.4503 8.92443 14.8574 9.04907C15.2397 9.15709 15.6302 9.19033 15.9709 9.19033C17.3004 9.19033 18.63 8.61697 18.63 7.17943C18.6383 5.84159 17.45 5.49259 16.6024 5.31809Z" fill="white"/>
</g>
<defs>
<clipPath id="clip0_1376_24088">
<rect width="32" height="11.7497" fill="white"/>
</clipPath>
</defs>
</svg>
