<svg xmlns="http://www.w3.org/2000/svg" width="1200" height="600" viewBox="0 0 1200 600">
  <rect width="1200" height="600" fill="#1a1a2e"/>
  <text x="600" y="280" font-family="system-ui, sans-serif" font-size="24" fill="#ffffff" text-anchor="middle">Team Photo</text>
  <text x="600" y="320" font-family="system-ui, sans-serif" font-size="16" fill="#888888" text-anchor="middle">Design team showing leadership and specialists in context</text>
  <!-- People silhouettes in a row -->
  <circle cx="200" cy="400" r="40" fill="#c9a227" opacity="0.4"/>
  <circle cx="320" cy="400" r="40" fill="#c9a227" opacity="0.3"/>
  <circle cx="440" cy="400" r="40" fill="#c9a227" opacity="0.5"/>
  <circle cx="560" cy="400" r="40" fill="#c9a227" opacity="0.3"/>
  <circle cx="680" cy="400" r="40" fill="#c9a227" opacity="0.4"/>
  <circle cx="800" cy="400" r="40" fill="#c9a227" opacity="0.3"/>
  <circle cx="920" cy="400" r="40" fill="#c9a227" opacity="0.5"/>
  <circle cx="1040" cy="400" r="40" fill="#c9a227" opacity="0.3"/>
  <!-- Shoulders -->
  <ellipse cx="200" cy="480" rx="60" ry="30" fill="#c9a227" opacity="0.3"/>
  <ellipse cx="320" cy="480" rx="60" ry="30" fill="#c9a227" opacity="0.2"/>
  <ellipse cx="440" cy="480" rx="60" ry="30" fill="#c9a227" opacity="0.4"/>
  <ellipse cx="560" cy="480" rx="60" ry="30" fill="#c9a227" opacity="0.2"/>
  <ellipse cx="680" cy="480" rx="60" ry="30" fill="#c9a227" opacity="0.3"/>
  <ellipse cx="800" cy="480" rx="60" ry="30" fill="#c9a227" opacity="0.2"/>
  <ellipse cx="920" cy="480" rx="60" ry="30" fill="#c9a227" opacity="0.4"/>
  <ellipse cx="1040" cy="480" rx="60" ry="30" fill="#c9a227" opacity="0.2"/>
  <!-- Coutts branding -->
  <rect x="500" y="520" width="200" height="40" rx="4" fill="#c9a227" opacity="0.2"/>
  <text x="600" y="547" font-family="Georgia, serif" font-size="18" fill="#c9a227" text-anchor="middle">COUTTS</text>
</svg>